<svg xmlns="http://www.w3.org/2000/svg" xmlns:xlink="http://www.w3.org/1999/xlink" width="1366" zoomAndPan="magnify" viewBox="0 0 1024.5 576" height="768" preserveAspectRatio="xMidYMid meet" version="1.0"><defs><clipPath id="52ea63815e"><path d="M 412.742188 172.941406 L 636.441406 172.941406 L 636.441406 367.644531 L 412.742188 367.644531 Z M 412.742188 172.941406 " clip-rule="nonzero"/></clipPath><clipPath id="232b0ead81"><path d="M 388.242188 183.277344 L 608.128906 183.277344 L 608.128906 403.191406 L 388.242188 403.191406 Z M 388.242188 183.277344 " clip-rule="nonzero"/></clipPath></defs><g clip-path="url(#52ea63815e)"><path fill="#299740" d="M 635.242188 175.863281 C 631.703125 174.945312 628.160156 174.03125 624.621094 173.113281 C 624.347656 172.960938 624.007812 172.894531 623.613281 172.972656 C 623.433594 172.992188 623.265625 173.039062 623.117188 173.113281 C 622.429688 173.335938 621.75 173.582031 621.074219 173.832031 C 618.765625 174.6875 616.492188 175.625 614.253906 176.621094 C 610.886719 178.121094 607.589844 179.753906 604.355469 181.484375 C 600.003906 183.808594 595.769531 186.3125 591.648438 188.964844 C 586.5 192.273438 581.519531 195.808594 576.714844 199.527344 C 571.109375 203.867188 565.746094 208.46875 560.625 213.289062 C 554.726562 218.839844 549.152344 224.679688 543.90625 230.753906 C 537.949219 237.648438 532.398438 244.828125 527.257812 252.25 C 521.460938 260.621094 516.1875 269.289062 511.402344 278.175781 C 506.011719 288.183594 501.234375 298.472656 497.015625 308.941406 C 496.191406 310.976562 495.394531 313.023438 494.617188 315.074219 C 491.894531 312.953125 489.167969 310.832031 486.445312 308.710938 C 479.308594 303.152344 472.167969 297.59375 465.03125 292.03125 C 458.46875 286.925781 451.910156 281.816406 445.347656 276.707031 C 443.679688 275.40625 442.011719 274.109375 440.347656 272.8125 C 439.921875 272.480469 439.546875 272.160156 439.019531 271.960938 C 437.363281 271.339844 435.652344 270.53125 433.933594 270.097656 C 433.277344 269.929688 432.457031 270.15625 431.792969 270.257812 C 430.644531 270.433594 429.492188 270.609375 428.339844 270.789062 C 427.617188 270.898438 426.632812 270.894531 426.027344 271.324219 C 425.695312 271.558594 425.539062 271.859375 425.339844 272.183594 C 423.5 275.191406 421.660156 278.195312 419.820312 281.203125 C 417.769531 284.554688 415.71875 287.90625 413.667969 291.253906 C 413.1875 292.039062 412.640625 292.6875 412.808594 293.632812 C 413.003906 294.730469 413.238281 295.824219 413.453125 296.921875 C 414.273438 301.105469 415.097656 305.292969 415.917969 309.480469 C 416.171875 310.769531 416.371094 312.082031 416.683594 313.359375 C 416.863281 314.109375 417.421875 314.5 418.164062 314.777344 C 418.8125 315.015625 419.460938 315.253906 420.105469 315.5 C 420.335938 315.585938 420.5625 315.671875 420.792969 315.761719 C 420.917969 315.808594 421.042969 315.855469 421.167969 315.90625 C 421.234375 315.929688 421.300781 315.957031 421.367188 315.980469 C 421.375 315.984375 421.382812 315.988281 421.390625 315.992188 C 422.042969 316.242188 422.691406 316.496094 423.339844 316.753906 C 427.015625 318.210938 430.664062 319.734375 434.285156 321.316406 C 445.148438 326.054688 455.777344 331.277344 466.023438 337.0625 C 478.082031 343.871094 489.707031 351.472656 500.023438 360.398438 C 502.496094 362.535156 504.886719 364.757812 507.175781 367.0625 C 507.96875 367.859375 509.613281 367.476562 509.863281 366.410156 C 510.183594 365.0625 510.546875 363.722656 510.910156 362.382812 C 511.921875 358.660156 513.023438 354.957031 514.179688 351.269531 C 515.941406 345.652344 517.84375 340.070312 519.871094 334.527344 C 522.441406 327.488281 525.210938 320.511719 528.179688 313.605469 C 531.589844 305.671875 535.273438 297.832031 539.246094 290.117188 C 543.605469 281.648438 548.3125 273.328125 553.410156 265.210938 C 558.726562 256.753906 564.46875 248.515625 570.710938 240.605469 C 577.058594 232.5625 583.945312 224.863281 591.417969 217.671875 C 598.90625 210.46875 606.992188 203.757812 615.722656 197.839844 C 620.132812 194.851562 624.703125 192.058594 629.421875 189.496094 C 630.503906 188.910156 632.128906 188.386719 632.640625 187.289062 C 632.816406 186.914062 632.9375 186.515625 633.085938 186.132812 C 633.765625 184.390625 634.441406 182.648438 635.117188 180.902344 C 635.535156 179.824219 635.949219 178.753906 636.367188 177.679688 C 636.660156 176.921875 636.035156 176.066406 635.242188 175.863281 " fill-opacity="1" fill-rule="nonzero"/></g><g clip-path="url(#232b0ead81)"><path fill="#299740" d="M 586.648438 228.089844 C 582.226562 232.792969 577.925781 237.792969 573.789062 243.035156 C 573.671875 243.183594 573.554688 243.335938 573.4375 243.484375 C 582.929688 257.769531 588.464844 274.902344 588.464844 293.304688 C 588.464844 343.085938 547.953125 383.589844 498.160156 383.589844 C 448.363281 383.589844 407.851562 343.085938 407.851562 293.304688 C 407.851562 243.519531 448.363281 203.019531 498.160156 203.019531 C 517.148438 203.019531 534.785156 208.90625 549.339844 218.957031 C 552.152344 216.023438 555.023438 213.171875 557.9375 210.433594 C 559.855469 208.628906 561.804688 206.855469 563.777344 205.125 C 556.738281 199.875 549.101562 195.5 540.949219 192.050781 C 527.390625 186.320312 512.992188 183.410156 498.160156 183.410156 C 483.324219 183.410156 468.929688 186.320312 455.371094 192.050781 C 442.28125 197.585938 430.527344 205.507812 420.433594 215.597656 C 410.34375 225.6875 402.421875 237.4375 396.882812 250.523438 C 391.148438 264.078125 388.242188 278.472656 388.242188 293.304688 C 388.242188 308.132812 391.148438 322.527344 396.882812 336.082031 C 402.417969 349.167969 410.34375 360.917969 420.433594 371.007812 C 430.527344 381.097656 442.28125 389.019531 455.371094 394.554688 C 468.929688 400.289062 483.324219 403.195312 498.160156 403.195312 C 512.992188 403.195312 527.390625 400.289062 540.949219 394.554688 C 554.039062 389.019531 565.792969 381.097656 575.882812 371.007812 C 585.976562 360.917969 593.898438 349.167969 599.4375 336.082031 C 605.167969 322.527344 608.078125 308.132812 608.078125 293.304688 C 608.078125 278.472656 605.167969 264.078125 599.4375 250.523438 C 596.050781 242.519531 591.769531 235.019531 586.648438 228.089844 " fill-opacity="1" fill-rule="nonzero"/></g></svg>