<svg xmlns="http://www.w3.org/2000/svg" xmlns:xlink="http://www.w3.org/1999/xlink" width="1366" zoomAndPan="magnify" viewBox="0 0 1024.5 576" height="768" preserveAspectRatio="xMidYMid meet" version="1.0"><defs><clipPath id="ddd1f9bbc6"><path d="M 383.921875 189.882812 L 614.921875 189.882812 L 614.921875 420.132812 L 383.921875 420.132812 Z M 383.921875 189.882812 " clip-rule="nonzero"/></clipPath></defs><g clip-path="url(#ddd1f9bbc6)"><path fill="#000000" d="M 499.472656 189.960938 C 435.644531 189.960938 383.921875 241.703125 383.921875 305.558594 C 383.921875 362.90625 425.742188 410.546875 480.464844 419.550781 L 480.464844 341.1875 L 451.050781 341.1875 L 451.050781 306.859375 L 480.464844 306.859375 L 480.464844 281.9375 C 480.464844 254.914062 502.375 236.601562 529.386719 236.601562 C 541.390625 236.601562 548.894531 238.402344 548.894531 238.402344 L 548.894531 267.226562 L 529.386719 267.226562 C 521.28125 267.226562 514.679688 273.832031 514.679688 281.9375 L 514.679688 306.859375 L 546.195312 306.859375 L 541.792969 341.1875 L 514.679688 341.1875 L 514.679688 420.054688 C 571.203125 412.546875 614.824219 364.105469 614.824219 305.558594 C 614.921875 241.703125 563.199219 189.960938 499.472656 189.960938 Z M 499.472656 189.960938 " fill-opacity="1" fill-rule="nonzero"/></g></svg>