<svg xmlns="http://www.w3.org/2000/svg" xmlns:xlink="http://www.w3.org/1999/xlink" width="1366" zoomAndPan="magnify" viewBox="0 0 1024.5 576" height="768" preserveAspectRatio="xMidYMid meet" version="1.0"><defs><clipPath id="951f419b50"><path d="M 397.050781 172.941406 L 627.300781 172.941406 L 627.300781 403.191406 L 397.050781 403.191406 Z M 397.050781 172.941406 " clip-rule="nonzero"/></clipPath></defs><g clip-path="url(#951f419b50)"><path fill="#1d1d1b" d="M 571.464844 172.941406 L 452.886719 172.941406 C 451.058594 172.945312 449.234375 173.035156 447.414062 173.21875 C 445.597656 173.398438 443.792969 173.671875 442 174.027344 C 440.207031 174.386719 438.4375 174.832031 436.6875 175.367188 C 434.941406 175.898438 433.222656 176.515625 431.53125 177.214844 C 429.84375 177.917969 428.195312 178.699219 426.582031 179.5625 C 424.972656 180.425781 423.40625 181.363281 421.886719 182.378906 C 420.367188 183.394531 418.902344 184.484375 417.488281 185.644531 C 416.078125 186.804688 414.722656 188.03125 413.433594 189.324219 C 412.140625 190.613281 410.914062 191.96875 409.753906 193.378906 C 408.59375 194.792969 407.503906 196.257812 406.488281 197.777344 C 405.472656 199.296875 404.535156 200.863281 403.671875 202.472656 C 402.808594 204.085938 402.027344 205.734375 401.324219 207.421875 C 400.625 209.113281 400.007812 210.828125 399.476562 212.578125 C 398.941406 214.328125 398.496094 216.097656 398.136719 217.890625 C 397.78125 219.683594 397.507812 221.488281 397.328125 223.304688 C 397.144531 225.125 397.054688 226.949219 397.050781 228.777344 L 397.050781 347.355469 C 397.054688 349.183594 397.144531 351.007812 397.328125 352.824219 C 397.507812 354.644531 397.78125 356.449219 398.140625 358.242188 C 398.496094 360.035156 398.941406 361.804688 399.476562 363.550781 C 400.007812 365.300781 400.625 367.019531 401.324219 368.707031 C 402.027344 370.394531 402.808594 372.046875 403.671875 373.65625 C 404.535156 375.269531 405.472656 376.832031 406.488281 378.351562 C 407.503906 379.871094 408.59375 381.339844 409.753906 382.75 C 410.914062 384.164062 412.140625 385.515625 413.433594 386.808594 C 414.722656 388.101562 416.078125 389.328125 417.488281 390.488281 C 418.902344 391.648438 420.367188 392.734375 421.886719 393.75 C 423.40625 394.765625 424.972656 395.707031 426.582031 396.570312 C 428.195312 397.433594 429.84375 398.214844 431.53125 398.914062 C 433.222656 399.617188 434.941406 400.230469 436.6875 400.765625 C 438.4375 401.296875 440.207031 401.742188 442 402.101562 C 443.792969 402.460938 445.597656 402.730469 447.414062 402.914062 C 449.234375 403.09375 451.058594 403.1875 452.886719 403.191406 L 571.464844 403.191406 C 573.292969 403.1875 575.117188 403.09375 576.933594 402.914062 C 578.753906 402.730469 580.558594 402.460938 582.351562 402.101562 C 584.144531 401.742188 585.914062 401.296875 587.660156 400.765625 C 589.410156 400.230469 591.128906 399.617188 592.816406 398.914062 C 594.503906 398.214844 596.15625 397.433594 597.765625 396.570312 C 599.378906 395.707031 600.941406 394.765625 602.460938 393.75 C 603.980469 392.734375 605.449219 391.648438 606.859375 390.488281 C 608.273438 389.328125 609.625 388.101562 610.917969 386.808594 C 612.210938 385.515625 613.4375 384.164062 614.597656 382.75 C 615.757812 381.339844 616.84375 379.871094 617.859375 378.351562 C 618.875 376.832031 619.816406 375.269531 620.679688 373.65625 C 621.542969 372.046875 622.324219 370.394531 623.023438 368.707031 C 623.726562 367.019531 624.339844 365.300781 624.875 363.550781 C 625.40625 361.804688 625.851562 360.035156 626.210938 358.242188 C 626.570312 356.449219 626.839844 354.644531 627.023438 352.824219 C 627.203125 351.007812 627.296875 349.183594 627.300781 347.355469 L 627.300781 228.777344 C 627.296875 226.949219 627.203125 225.125 627.023438 223.304688 C 626.839844 221.488281 626.570312 219.683594 626.210938 217.890625 C 625.851562 216.097656 625.40625 214.328125 624.875 212.578125 C 624.339844 210.828125 623.726562 209.113281 623.023438 207.421875 C 622.324219 205.734375 621.542969 204.085938 620.679688 202.472656 C 619.816406 200.863281 618.875 199.296875 617.859375 197.777344 C 616.84375 196.257812 615.757812 194.792969 614.597656 193.378906 C 613.4375 191.96875 612.210938 190.613281 610.917969 189.324219 C 609.625 188.03125 608.273438 186.804688 606.859375 185.644531 C 605.449219 184.484375 603.980469 183.394531 602.460938 182.378906 C 600.941406 181.363281 599.378906 180.425781 597.765625 179.5625 C 596.15625 178.699219 594.503906 177.917969 592.816406 177.214844 C 591.128906 176.515625 589.410156 175.898438 587.660156 175.367188 C 585.914062 174.832031 584.144531 174.386719 582.351562 174.027344 C 580.558594 173.671875 578.753906 173.398438 576.933594 173.21875 C 575.117188 173.035156 573.292969 172.945312 571.464844 172.941406 Z M 608.113281 347.355469 C 608.113281 348.554688 608.054688 349.753906 607.9375 350.945312 C 607.816406 352.140625 607.640625 353.328125 607.410156 354.503906 C 607.175781 355.683594 606.882812 356.84375 606.535156 357.992188 C 606.1875 359.140625 605.78125 360.269531 605.324219 361.378906 C 604.863281 362.488281 604.351562 363.570312 603.785156 364.628906 C 603.21875 365.6875 602.601562 366.71875 601.9375 367.714844 C 601.269531 368.714844 600.554688 369.675781 599.792969 370.605469 C 599.03125 371.53125 598.226562 372.421875 597.378906 373.269531 C 596.53125 374.117188 595.640625 374.921875 594.714844 375.683594 C 593.785156 376.445312 592.824219 377.160156 591.824219 377.828125 C 590.828125 378.492188 589.796875 379.109375 588.738281 379.675781 C 587.679688 380.242188 586.597656 380.753906 585.488281 381.214844 C 584.378906 381.671875 583.25 382.078125 582.101562 382.425781 C 580.953125 382.773438 579.792969 383.066406 578.613281 383.296875 C 577.4375 383.53125 576.25 383.707031 575.054688 383.828125 C 573.863281 383.945312 572.664062 384.003906 571.464844 384.003906 L 452.886719 384.003906 C 451.683594 384.003906 450.488281 383.945312 449.292969 383.828125 C 448.097656 383.707031 446.914062 383.53125 445.734375 383.296875 C 444.558594 383.066406 443.394531 382.773438 442.246094 382.425781 C 441.097656 382.078125 439.96875 381.671875 438.859375 381.214844 C 437.753906 380.753906 436.667969 380.242188 435.609375 379.675781 C 434.550781 379.109375 433.523438 378.492188 432.523438 377.828125 C 431.527344 377.160156 430.5625 376.445312 429.636719 375.683594 C 428.707031 374.921875 427.820312 374.117188 426.972656 373.269531 C 426.121094 372.421875 425.316406 371.53125 424.554688 370.605469 C 423.792969 369.675781 423.082031 368.714844 422.414062 367.714844 C 421.746094 366.71875 421.128906 365.6875 420.566406 364.628906 C 420 363.570312 419.488281 362.488281 419.027344 361.378906 C 418.566406 360.269531 418.164062 359.140625 417.816406 357.992188 C 417.46875 356.84375 417.175781 355.683594 416.941406 354.503906 C 416.707031 353.328125 416.53125 352.140625 416.414062 350.945312 C 416.296875 349.753906 416.238281 348.554688 416.238281 347.355469 L 416.238281 228.777344 C 416.238281 227.574219 416.296875 226.378906 416.414062 225.183594 C 416.53125 223.988281 416.707031 222.804688 416.941406 221.625 C 417.175781 220.449219 417.46875 219.285156 417.816406 218.136719 C 418.164062 216.988281 418.566406 215.859375 419.027344 214.75 C 419.488281 213.640625 420 212.558594 420.566406 211.5 C 421.128906 210.441406 421.746094 209.414062 422.414062 208.414062 C 423.082031 207.417969 423.792969 206.453125 424.554688 205.527344 C 425.316406 204.597656 426.121094 203.710938 426.972656 202.863281 C 427.820312 202.011719 428.707031 201.207031 429.636719 200.445312 C 430.5625 199.683594 431.527344 198.972656 432.523438 198.304688 C 433.523438 197.636719 434.550781 197.019531 435.609375 196.457031 C 436.667969 195.890625 437.753906 195.378906 438.859375 194.917969 C 439.96875 194.457031 441.097656 194.054688 442.246094 193.707031 C 443.394531 193.359375 444.558594 193.066406 445.734375 192.832031 C 446.914062 192.597656 448.097656 192.421875 449.292969 192.304688 C 450.488281 192.1875 451.683594 192.128906 452.886719 192.128906 L 571.464844 192.128906 C 572.664062 192.128906 573.863281 192.1875 575.054688 192.304688 C 576.25 192.421875 577.4375 192.597656 578.613281 192.832031 C 579.792969 193.066406 580.953125 193.359375 582.101562 193.707031 C 583.25 194.054688 584.378906 194.457031 585.488281 194.917969 C 586.597656 195.378906 587.679688 195.890625 588.738281 196.457031 C 589.796875 197.019531 590.828125 197.636719 591.824219 198.304688 C 592.824219 198.972656 593.785156 199.683594 594.714844 200.445312 C 595.640625 201.207031 596.53125 202.011719 597.378906 202.863281 C 598.226562 203.710938 599.03125 204.597656 599.792969 205.527344 C 600.554688 206.453125 601.269531 207.417969 601.9375 208.414062 C 602.601562 209.414062 603.21875 210.441406 603.785156 211.5 C 604.351562 212.558594 604.863281 213.640625 605.324219 214.75 C 605.78125 215.859375 606.1875 216.988281 606.535156 218.136719 C 606.882812 219.285156 607.175781 220.449219 607.410156 221.625 C 607.640625 222.804688 607.816406 223.988281 607.9375 225.183594 C 608.054688 226.378906 608.113281 227.574219 608.113281 228.777344 Z M 608.113281 347.355469 " fill-opacity="1" fill-rule="nonzero"/></g><path fill="#1d1d1b" d="M 512.175781 240.097656 C 510.605469 240.097656 509.035156 240.171875 507.472656 240.328125 C 505.910156 240.480469 504.359375 240.710938 502.816406 241.019531 C 501.277344 241.324219 499.753906 241.707031 498.25 242.164062 C 496.746094 242.617188 495.269531 243.148438 493.816406 243.75 C 492.367188 244.347656 490.949219 245.019531 489.5625 245.761719 C 488.175781 246.5 486.832031 247.308594 485.523438 248.179688 C 484.21875 249.054688 482.957031 249.988281 481.742188 250.984375 C 480.53125 251.980469 479.367188 253.035156 478.257812 254.144531 C 477.144531 255.257812 476.089844 256.421875 475.09375 257.632812 C 474.097656 258.847656 473.164062 260.109375 472.289062 261.414062 C 471.417969 262.722656 470.609375 264.066406 469.871094 265.453125 C 469.128906 266.839844 468.457031 268.257812 467.859375 269.707031 C 467.257812 271.160156 466.726562 272.636719 466.273438 274.140625 C 465.816406 275.644531 465.433594 277.167969 465.128906 278.707031 C 464.820312 280.25 464.589844 281.800781 464.4375 283.363281 C 464.285156 284.925781 464.207031 286.496094 464.207031 288.066406 C 464.207031 289.636719 464.285156 291.203125 464.4375 292.765625 C 464.589844 294.332031 464.820312 295.882812 465.128906 297.421875 C 465.433594 298.964844 465.816406 300.488281 466.273438 301.988281 C 466.726562 303.492188 467.257812 304.972656 467.859375 306.421875 C 468.457031 307.875 469.128906 309.292969 469.871094 310.679688 C 470.609375 312.0625 471.417969 313.410156 472.289062 314.714844 C 473.164062 316.023438 474.097656 317.28125 475.09375 318.496094 C 476.089844 319.710938 477.144531 320.875 478.257812 321.984375 C 479.367188 323.09375 480.53125 324.148438 481.742188 325.144531 C 482.957031 326.140625 484.21875 327.078125 485.523438 327.949219 C 486.832031 328.824219 488.175781 329.628906 489.5625 330.371094 C 490.949219 331.109375 492.367188 331.78125 493.816406 332.382812 C 495.269531 332.984375 496.746094 333.511719 498.25 333.96875 C 499.753906 334.425781 501.277344 334.804688 502.816406 335.113281 C 504.359375 335.417969 505.910156 335.648438 507.472656 335.804688 C 509.035156 335.957031 510.605469 336.035156 512.175781 336.035156 C 513.746094 336.035156 515.3125 335.957031 516.875 335.804688 C 518.441406 335.648438 519.992188 335.417969 521.53125 335.113281 C 523.074219 334.804688 524.597656 334.425781 526.097656 333.96875 C 527.601562 333.511719 529.082031 332.984375 530.53125 332.382812 C 531.984375 331.78125 533.402344 331.109375 534.789062 330.371094 C 536.171875 329.628906 537.519531 328.824219 538.824219 327.949219 C 540.132812 327.078125 541.390625 326.140625 542.605469 325.144531 C 543.820312 324.148438 544.984375 323.09375 546.09375 321.984375 C 547.203125 320.875 548.257812 319.710938 549.253906 318.496094 C 550.253906 317.28125 551.1875 316.023438 552.058594 314.714844 C 552.933594 313.410156 553.738281 312.0625 554.480469 310.679688 C 555.21875 309.292969 555.890625 307.875 556.492188 306.421875 C 557.09375 304.972656 557.621094 303.492188 558.078125 301.988281 C 558.535156 300.488281 558.914062 298.964844 559.222656 297.421875 C 559.527344 295.882812 559.757812 294.332031 559.914062 292.765625 C 560.066406 291.203125 560.144531 289.636719 560.144531 288.066406 C 560.144531 286.496094 560.066406 284.925781 559.914062 283.363281 C 559.757812 281.800781 559.527344 280.25 559.222656 278.707031 C 558.914062 277.167969 558.535156 275.644531 558.078125 274.140625 C 557.621094 272.636719 557.09375 271.160156 556.492188 269.707031 C 555.890625 268.257812 555.21875 266.839844 554.480469 265.453125 C 553.738281 264.066406 552.933594 262.722656 552.058594 261.414062 C 551.1875 260.109375 550.253906 258.847656 549.253906 257.632812 C 548.257812 256.421875 547.203125 255.257812 546.09375 254.144531 C 544.984375 253.035156 543.820312 251.980469 542.605469 250.984375 C 541.390625 249.988281 540.132812 249.054688 538.824219 248.179688 C 537.519531 247.308594 536.171875 246.5 534.789062 245.761719 C 533.402344 245.019531 531.984375 244.347656 530.53125 243.75 C 529.082031 243.148438 527.601562 242.617188 526.097656 242.164062 C 524.597656 241.707031 523.074219 241.324219 521.53125 241.019531 C 519.992188 240.710938 518.441406 240.480469 516.875 240.328125 C 515.3125 240.171875 513.746094 240.097656 512.175781 240.097656 Z M 512.175781 316.847656 C 511.230469 316.847656 510.292969 316.800781 509.355469 316.707031 C 508.414062 316.617188 507.484375 316.476562 506.558594 316.292969 C 505.636719 316.109375 504.722656 315.882812 503.820312 315.605469 C 502.917969 315.332031 502.03125 315.015625 501.160156 314.65625 C 500.289062 314.296875 499.4375 313.894531 498.609375 313.449219 C 497.777344 313.003906 496.96875 312.519531 496.183594 311.996094 C 495.402344 311.472656 494.644531 310.910156 493.917969 310.3125 C 493.1875 309.714844 492.488281 309.082031 491.824219 308.417969 C 491.15625 307.75 490.523438 307.054688 489.925781 306.324219 C 489.328125 305.59375 488.769531 304.839844 488.246094 304.054688 C 487.71875 303.273438 487.238281 302.464844 486.792969 301.632812 C 486.347656 300.800781 485.945312 299.949219 485.585938 299.078125 C 485.222656 298.207031 484.90625 297.320312 484.632812 296.421875 C 484.359375 295.519531 484.128906 294.605469 483.945312 293.679688 C 483.761719 292.757812 483.625 291.824219 483.53125 290.886719 C 483.441406 289.949219 483.394531 289.007812 483.394531 288.066406 C 483.394531 287.121094 483.441406 286.183594 483.53125 285.246094 C 483.625 284.304688 483.761719 283.375 483.945312 282.449219 C 484.128906 281.527344 484.359375 280.613281 484.632812 279.710938 C 484.90625 278.808594 485.222656 277.921875 485.585938 277.050781 C 485.945312 276.179688 486.347656 275.328125 486.792969 274.5 C 487.238281 273.667969 487.71875 272.859375 488.246094 272.074219 C 488.769531 271.292969 489.328125 270.535156 489.925781 269.808594 C 490.523438 269.078125 491.15625 268.378906 491.824219 267.714844 C 492.488281 267.046875 493.1875 266.414062 493.917969 265.816406 C 494.644531 265.21875 495.402344 264.660156 496.183594 264.132812 C 496.96875 263.609375 497.777344 263.128906 498.609375 262.683594 C 499.4375 262.238281 500.289062 261.835938 501.160156 261.476562 C 502.03125 261.113281 502.917969 260.796875 503.820312 260.523438 C 504.722656 260.25 505.636719 260.019531 506.558594 259.835938 C 507.484375 259.652344 508.414062 259.515625 509.355469 259.421875 C 510.292969 259.332031 511.230469 259.285156 512.175781 259.285156 C 513.117188 259.285156 514.058594 259.332031 514.996094 259.421875 C 515.933594 259.515625 516.867188 259.652344 517.789062 259.835938 C 518.714844 260.019531 519.628906 260.25 520.53125 260.523438 C 521.433594 260.796875 522.316406 261.113281 523.1875 261.476562 C 524.058594 261.835938 524.910156 262.238281 525.742188 262.683594 C 526.574219 263.128906 527.382812 263.609375 528.164062 264.132812 C 528.949219 264.660156 529.703125 265.21875 530.433594 265.816406 C 531.164062 266.414062 531.859375 267.046875 532.527344 267.714844 C 533.191406 268.378906 533.824219 269.078125 534.421875 269.808594 C 535.019531 270.535156 535.582031 271.292969 536.105469 272.074219 C 536.628906 272.859375 537.113281 273.667969 537.558594 274.5 C 538.003906 275.328125 538.40625 276.179688 538.765625 277.050781 C 539.125 277.921875 539.441406 278.808594 539.71875 279.710938 C 539.992188 280.613281 540.21875 281.527344 540.402344 282.449219 C 540.585938 283.375 540.726562 284.304688 540.816406 285.246094 C 540.910156 286.183594 540.957031 287.121094 540.957031 288.066406 C 540.957031 289.007812 540.910156 289.949219 540.816406 290.886719 C 540.726562 291.824219 540.585938 292.757812 540.402344 293.679688 C 540.21875 294.605469 539.992188 295.519531 539.71875 296.421875 C 539.441406 297.320312 539.125 298.207031 538.765625 299.078125 C 538.40625 299.949219 538.003906 300.800781 537.558594 301.632812 C 537.113281 302.464844 536.628906 303.273438 536.105469 304.054688 C 535.582031 304.839844 535.019531 305.59375 534.421875 306.324219 C 533.824219 307.054688 533.191406 307.75 532.527344 308.417969 C 531.859375 309.082031 531.164062 309.714844 530.433594 310.3125 C 529.703125 310.910156 528.949219 311.472656 528.164062 311.996094 C 527.382812 312.519531 526.574219 313.003906 525.742188 313.449219 C 524.910156 313.894531 524.058594 314.296875 523.1875 314.65625 C 522.316406 315.015625 521.433594 315.332031 520.53125 315.605469 C 519.628906 315.882812 518.714844 316.109375 517.789062 316.292969 C 516.867188 316.476562 515.933594 316.617188 514.996094 316.707031 C 514.058594 316.800781 513.117188 316.847656 512.175781 316.847656 Z M 512.175781 316.847656 " fill-opacity="1" fill-rule="nonzero"/><path fill="#1d1d1b" d="M 588.925781 230.503906 C 588.925781 231.132812 588.894531 231.757812 588.832031 232.382812 C 588.769531 233.007812 588.679688 233.628906 588.554688 234.246094 C 588.433594 234.863281 588.28125 235.472656 588.097656 236.074219 C 587.917969 236.675781 587.703125 237.265625 587.464844 237.84375 C 587.222656 238.425781 586.957031 238.992188 586.660156 239.546875 C 586.363281 240.101562 586.039062 240.640625 585.691406 241.164062 C 585.34375 241.683594 584.96875 242.191406 584.570312 242.675781 C 584.171875 243.160156 583.75 243.625 583.304688 244.070312 C 582.859375 244.515625 582.394531 244.9375 581.910156 245.335938 C 581.425781 245.734375 580.921875 246.109375 580.398438 246.457031 C 579.875 246.804688 579.335938 247.128906 578.78125 247.425781 C 578.226562 247.722656 577.660156 247.988281 577.082031 248.230469 C 576.5 248.46875 575.910156 248.683594 575.308594 248.863281 C 574.707031 249.046875 574.097656 249.199219 573.480469 249.320312 C 572.863281 249.445312 572.242188 249.535156 571.617188 249.597656 C 570.992188 249.660156 570.367188 249.691406 569.738281 249.691406 C 569.109375 249.691406 568.480469 249.660156 567.855469 249.597656 C 567.230469 249.535156 566.609375 249.445312 565.996094 249.320312 C 565.378906 249.199219 564.769531 249.046875 564.167969 248.863281 C 563.566406 248.683594 562.976562 248.46875 562.394531 248.230469 C 561.8125 247.988281 561.246094 247.722656 560.691406 247.425781 C 560.136719 247.128906 559.601562 246.804688 559.078125 246.457031 C 558.554688 246.109375 558.050781 245.734375 557.566406 245.335938 C 557.078125 244.9375 556.613281 244.515625 556.167969 244.070312 C 555.726562 243.625 555.304688 243.160156 554.90625 242.675781 C 554.507812 242.191406 554.132812 241.683594 553.785156 241.164062 C 553.433594 240.640625 553.113281 240.101562 552.816406 239.546875 C 552.519531 238.992188 552.25 238.425781 552.011719 237.84375 C 551.769531 237.265625 551.558594 236.675781 551.375 236.074219 C 551.195312 235.472656 551.042969 234.863281 550.917969 234.246094 C 550.796875 233.628906 550.703125 233.007812 550.640625 232.382812 C 550.582031 231.757812 550.550781 231.132812 550.550781 230.503906 C 550.550781 229.875 550.582031 229.246094 550.640625 228.621094 C 550.703125 227.996094 550.796875 227.375 550.917969 226.757812 C 551.042969 226.144531 551.195312 225.535156 551.375 224.933594 C 551.558594 224.332031 551.769531 223.742188 552.011719 223.160156 C 552.25 222.578125 552.519531 222.011719 552.816406 221.457031 C 553.113281 220.902344 553.433594 220.367188 553.785156 219.84375 C 554.132812 219.320312 554.507812 218.816406 554.90625 218.332031 C 555.304688 217.84375 555.726562 217.378906 556.167969 216.933594 C 556.613281 216.492188 557.078125 216.070312 557.566406 215.671875 C 558.050781 215.273438 558.554688 214.898438 559.078125 214.550781 C 559.601562 214.199219 560.136719 213.878906 560.691406 213.582031 C 561.246094 213.285156 561.8125 213.015625 562.394531 212.777344 C 562.976562 212.535156 563.566406 212.324219 564.167969 212.140625 C 564.769531 211.960938 565.378906 211.808594 565.996094 211.683594 C 566.609375 211.5625 567.230469 211.46875 567.855469 211.40625 C 568.480469 211.347656 569.109375 211.316406 569.738281 211.316406 C 570.367188 211.316406 570.992188 211.347656 571.617188 211.40625 C 572.242188 211.46875 572.863281 211.5625 573.480469 211.683594 C 574.097656 211.808594 574.707031 211.960938 575.308594 212.140625 C 575.910156 212.324219 576.5 212.535156 577.082031 212.777344 C 577.660156 213.015625 578.226562 213.285156 578.78125 213.582031 C 579.335938 213.878906 579.875 214.199219 580.398438 214.550781 C 580.921875 214.898438 581.425781 215.273438 581.910156 215.671875 C 582.394531 216.070312 582.859375 216.492188 583.304688 216.933594 C 583.75 217.378906 584.171875 217.84375 584.570312 218.332031 C 584.96875 218.816406 585.34375 219.320312 585.691406 219.84375 C 586.039062 220.367188 586.363281 220.902344 586.660156 221.457031 C 586.957031 222.011719 587.222656 222.578125 587.464844 223.160156 C 587.703125 223.742188 587.917969 224.332031 588.097656 224.933594 C 588.28125 225.535156 588.433594 226.144531 588.554688 226.757812 C 588.679688 227.375 588.769531 227.996094 588.832031 228.621094 C 588.894531 229.246094 588.925781 229.875 588.925781 230.503906 Z M 588.925781 230.503906 " fill-opacity="1" fill-rule="nonzero"/></svg>