<svg xmlns="http://www.w3.org/2000/svg" xmlns:xlink="http://www.w3.org/1999/xlink" width="1366" zoomAndPan="magnify" viewBox="0 0 1024.5 576" height="768" preserveAspectRatio="xMidYMid meet" version="1.0"><defs><clipPath id="f6e382f258"><path d="M 397.050781 172.941406 L 627.300781 172.941406 L 627.300781 403.191406 L 397.050781 403.191406 Z M 397.050781 172.941406 " clip-rule="nonzero"/></clipPath></defs><g clip-path="url(#f6e382f258)"><path fill="#000000" d="M 512.175781 172.941406 C 448.582031 172.941406 397.050781 224.472656 397.050781 288.066406 C 397.050781 351.660156 448.582031 403.191406 512.175781 403.191406 C 575.769531 403.191406 627.300781 351.660156 627.300781 288.066406 C 627.199219 224.472656 575.667969 172.941406 512.175781 172.941406 Z M 578.460938 320.261719 C 577.164062 328.734375 569.789062 334.914062 561.214844 334.914062 L 463.035156 334.914062 C 454.464844 334.914062 447.085938 328.734375 445.792969 320.261719 C 444.59375 312.386719 443.398438 301.421875 443.300781 287.964844 C 443.398438 274.507812 444.496094 263.644531 445.792969 255.671875 C 447.085938 247.199219 454.464844 241.019531 463.035156 241.019531 L 561.214844 241.019531 C 569.789062 241.019531 577.164062 247.199219 578.460938 255.671875 C 579.65625 263.546875 580.851562 274.507812 580.949219 287.964844 C 580.851562 301.421875 579.65625 312.386719 578.460938 320.261719 Z M 578.460938 320.261719 " fill-opacity="1" fill-rule="nonzero"/></g><path fill="#000000" d="M 497.621094 269.328125 L 497.621094 306.703125 L 532.410156 288.066406 Z M 497.621094 269.328125 " fill-opacity="1" fill-rule="nonzero"/></svg>